HIERARCHY
ROOT Hips
{
	OFFSET 0.00000 0.00000 0.00000
	CHANNELS 6 Xposition Yposition Zposition Zrotation Yrotation Xrotation 
	JOINT LHipJoint
	{
		OFFSET 0 0 0
		CHANNELS 3 Zrotation Yrotation Xrotation
		JOINT LeftHip
		{
			OFFSET 1.74857 -1.85566 0.69197
			CHANNELS 3 Zrotation Yrotation Xrotation
			JOINT LeftKnee
			{
				OFFSET 2.40003 -6.59403 0.00000
				CHANNELS 3 Zrotation Yrotation Xrotation
				JOINT LeftAnkle
				{
					OFFSET 2.82169 -7.75254 0.00000
					CHANNELS 3 Zrotation Yrotation Xrotation
					JOINT LeftToe
					{
						OFFSET 0.16466 -0.45240 2.26890
						CHANNELS 3 Zrotation Yrotation Xrotation
						End Site
						{
							OFFSET 0.00000 -0.00000 1.16486
						}
					}
				}
			}
		}
	}
	JOINT RHipJoint
	{
		OFFSET 0 0 0
		CHANNELS 3 Zrotation Yrotation Xrotation
		JOINT RightHip
		{
			OFFSET -1.64169 -1.85566 0.69197
			CHANNELS 3 Zrotation Yrotation Xrotation
			JOINT RightKnee
			{
				OFFSET -2.41814 -6.64379 0.00000
				CHANNELS 3 Zrotation Yrotation Xrotation
				JOINT RightAnkle
				{
					OFFSET -2.80588 -7.70911 0.00000
					CHANNELS 3 Zrotation Yrotation Xrotation
					JOINT RightToe
					{
						OFFSET -0.19098 -0.52472 2.25401
						CHANNELS 3 Zrotation Yrotation Xrotation
						End Site
						{
							OFFSET -0.00000 -0.00000 1.16333
						}
					}
				}
			}
		}
	}
	JOINT lowerback
	{
		OFFSET 0 0 0
		CHANNELS 3 Zrotation Yrotation Xrotation
		JOINT Chest
		{
			OFFSET -0.02828 2.14690 -0.11061
			CHANNELS 3 Zrotation Yrotation Xrotation
			JOINT Chest2
			{
				OFFSET -0.00167 2.15299 0.00759
				CHANNELS 3 Zrotation Yrotation Xrotation
				JOINT lowerneck
				{
					OFFSET 0 0 0
					CHANNELS 3 Zrotation Yrotation Xrotation
					JOINT Neck
					{
						OFFSET -0.09296 1.90118 0.07197
						CHANNELS 3 Zrotation Yrotation Xrotation
						JOINT Head
						{
							OFFSET 0.08490 1.89526 -0.24604
							CHANNELS 3 Zrotation Yrotation Xrotation
							End Site
							{
								OFFSET 0.03186 1.92109 -0.09483
							}
						}
					}
				}
				JOINT LeftCollar
				{
					OFFSET 0 0 0
					CHANNELS 3 Zrotation Yrotation Xrotation
					JOINT LeftShoulder
					{
						OFFSET 3.21569 1.44644 -0.03720
CHANNELS 3 Zrotation Xrotation Yrotation
						JOINT LeftElbow
						{
OFFSET 0 -5.476510 -0.000000
CHANNELS 3 Zrotation Xrotation Yrotation
							JOINT LeftWrist
							{
OFFSET 0 -3.090580 -0.000000
CHANNELS 3 Zrotation Xrotation Yrotation
								JOINT lhand
								{
									OFFSET 0 0 0
CHANNELS 3 Zrotation Xrotation Yrotation
									JOINT LFingers
									{
OFFSET 0 -0.771610 -0.000000
CHANNELS 3 Zrotation Xrotation Yrotation
										End Site
										{
OFFSET 0 -0.622090 -0.000000
										}
									}
								}
								JOINT LThumb
								{
OFFSET 0 0.000000 0.000000
CHANNELS 3 Zrotation Xrotation Yrotation
									End Site
									{
OFFSET 0 -0.631590 0.631590
									}
								}
							}
						}
					}
				}
				JOINT RightCollar
				{
					OFFSET 0 0 0
					CHANNELS 3 Zrotation Yrotation Xrotation
					JOINT RightShoulder
					{
						OFFSET -3.38693 1.28904 -0.07093
CHANNELS 3 Zrotation Xrotation Yrotation
						JOINT RightElbow
						{
OFFSET 0 -5.141820 -0.000000
CHANNELS 3 Zrotation Xrotation Yrotation
							JOINT RightWrist
							{
OFFSET 0 -3.355650 -0.000000
CHANNELS 3 Zrotation Xrotation Yrotation
								JOINT rhand
								{
									OFFSET 0 0 0
CHANNELS 3 Zrotation Xrotation Yrotation
									JOINT RFingers
									{
OFFSET 0 -0.801040 -0.000000
CHANNELS 3 Zrotation Xrotation Yrotation
										End Site
										{
OFFSET 0 -0.645820 -0.000000
										}
									}
								}
								JOINT RThumb
								{
OFFSET 0 0.000000 0.000000
CHANNELS 3 Zrotation Xrotation Yrotation
									End Site
									{
OFFSET 0 -0.655680 0.655680
									}
								}
							}
						}
					}
				}
			}
		}
	}
}
MOTION
Frames: 4
Frame Time: 0.008333333333333333
-0.311300 17.758200 -2.779700 1.713600 0.744300 4.001100 0.000000 0.000000 0.000000 -19.334000 -6.950400 -17.960200 3.015400 10.719900 31.341100 0.971000 3.208900 -20.034300 0.601000 -4.962500 -13.801800 0.000000 0.000000 0.000000 15.684300 8.500700 -20.271500 -3.311900 -11.183700 32.901900 -0.635000 -7.227000 -19.385900 -0.356700 3.836800 -10.617900 0.075900 2.266400 9.944600 0.020400 3.008300 3.972000 -0.351100 1.499900 -1.440800 -6.941100 -5.589700 -1.610500 5.248500 -7.484800 4.802100 2.707500 -3.742200 2.337100 -0.000000 0.000000 0.000000 23.736600 -55.620600 -50.889000 46.465000 -51.466300 23.379200 4.542800 -56.433100 -30.457100 0.000000 0.000000 0.000000 -7.125000 0.000000 0.000000 -29.703700 57.942300 9.983900 -0.000000 0.000000 0.000000 -38.019700 -51.935800 28.973300 -37.622100 -46.596300 -16.690500 -13.573600 -74.593200 -12.326000 0.000000 0.000000 0.000000 7.125000 0.000000 -0.000000 9.484700 17.415400 6.298500
-0.318078 17.754385 -2.807471 1.860815 0.842274 4.142668 0.000000 0.000000 0.000000 -19.431905 -6.876981 -18.448159 3.052505 10.779595 31.540057 0.954505 3.047418 -19.793780 0.571805 -4.842656 -13.460299 0.000000 0.000000 0.000000 15.490741 8.621073 -20.728606 -3.441277 -11.377227 33.562941 -0.691221 -6.726611 -19.566095 -0.234919 3.119295 -8.611065 -0.176229 2.147540 10.030434 0.237529 2.832352 3.973849 0.029350 1.408646 -1.510156 -7.494367 -5.378077 -1.420185 5.404272 -7.198738 4.627216 2.879441 -3.608759 2.259754 0.000000 0.000000 0.000000 24.198673 -55.791687 -49.827998 46.796114 -51.618635 23.638554 4.881451 -56.515544 -30.240776 0.000000 0.000000 0.000000 -7.125000 0.000000 0.000000 -29.190912 57.828280 9.709291 0.000000 0.000000 0.000000 -38.528940 -52.635470 29.234750 -37.598935 -46.581240 -16.673686 -13.749713 -74.994182 -12.656546 0.000000 0.000000 0.000000 7.125000 0.000000 0.000000 9.357942 17.069294 6.283802
-0.324654 17.738731 -2.816844 2.071194 0.897185 4.015995 0.000000 0.000000 0.000000 -19.645340 -6.821086 -18.491093 3.091625 10.841876 31.748361 0.945826 3.034454 -19.704401 0.607857 -4.989747 -13.879392 0.000000 0.000000 0.000000 15.267566 8.584292 -20.914073 -3.544371 -11.528110 34.082392 -0.713777 -6.688143 -19.764790 -0.244578 3.182169 -8.786315 -0.074876 2.325343 10.223427 0.008080 3.071068 4.116995 -0.294770 1.530044 -1.449801 -6.982435 -5.502121 -1.351984 5.349955 -7.381586 4.610091 2.761427 -3.692284 2.226383 0.000000 0.000000 0.000000 23.966708 -56.534163 -50.344359 47.097413 -51.755630 23.874947 5.145862 -56.303751 -30.705193 0.000000 0.000000 0.000000 -7.125000 0.000000 0.000000 -29.319537 58.286966 10.087766 0.000000 0.000000 0.000000 -38.869360 -52.395387 28.211170 -37.787396 -46.702988 -16.810663 -13.550670 -74.617818 -12.624753 0.000000 0.000000 0.000000 7.125000 0.000000 0.000000 9.495707 17.114997 6.369441
-0.335761 17.733715 -2.812335 2.147678 0.841913 3.968777 0.000000 0.000000 0.000000 -19.698739 -6.826325 -18.413135 3.094517 10.846479 31.763858 0.951423 3.063132 -19.772491 0.617543 -5.029237 -13.992073 0.000000 0.000000 0.000000 15.217624 8.644951 -20.970557 -3.593310 -11.598628 34.326471 -0.726529 -6.656704 -19.869227 -0.253894 3.242012 -8.953233 -0.548539 2.160214 10.120469 0.304989 2.815190 4.207853 0.311224 1.396332 -1.337852 -7.629413 -5.351070 -1.373619 5.249693 -7.154690 4.698875 2.854147 -3.593154 2.270724 0.000000 0.000000 0.000000 24.222326 -56.462081 -49.240029 47.228735 -51.814792 23.978055 4.851613 -56.382455 -30.666351 0.000000 0.000000 0.000000 -7.125000 0.000000 0.000000 -29.576671 58.189415 10.115788 0.000000 0.000000 0.000000 -38.800956 -52.874330 29.156319 -37.909855 -46.781589 -16.899846 -13.557611 -74.762963 -12.572845 0.000000 0.000000 0.000000 7.125000 0.000000 0.000000 9.491836 17.166942 6.355767
